<svg width="100%" height="100%" viewBox="0 0 256 256" version="1.1" xmlns="http://www.w3.org/2000/svg" style="fill-rule:evenodd;clip-rule:evenodd;stroke-linecap:round;stroke-linejoin:round;stroke-miterlimit:1.5;"><rect id="Prancheta1" x="0" y="0" width="256" height="256" style="fill:none;"/><clipPath id="_clip1"><rect id="Prancheta11" x="0" y="0" width="256" height="256"/></clipPath><g clip-path="url(#_clip1)"><rect x="0" y="0" width="256" height="256" style="fill:#0f52ff;"/><path d="M121.016,77.545l0,19.449l38.897,-0l0,-19.449l-38.897,0Z" style="fill:#fff;stroke:#0f52ff;stroke-width:2.52px;"/><path d="M101.568,116.442l-0,19.449l38.897,-0l-0,-19.449l-38.897,0Z" style="fill:#fff;stroke:#0f52ff;stroke-width:2.52px;"/><path d="M101.568,116.442l19.448,-19.448l38.897,-0l-19.448,19.448l-38.897,0Z" style="fill:#fff;stroke:#0f52ff;stroke-width:2.52px;"/><path d="M101.568,58.097l19.448,19.448l38.897,0l-19.448,-19.448l-38.897,-0Z" style="fill:#fff;stroke:#0f52ff;stroke-width:2.52px;"/><path d="M121.016,96.994l-19.448,-19.449l-0,-19.448l19.448,19.448l0,19.449Z" style="fill:#fff;stroke:#0f52ff;stroke-width:2.52px;"/><path d="M121.016,135.891l0,19.448l38.897,0l0,-19.448l-38.897,-0Z" style="fill:#fff;stroke:#0f52ff;stroke-width:2.52px;"/><path d="M101.568,174.788l19.448,-19.449l38.897,0l-19.448,19.449l-38.897,-0Z" style="fill:#fff;stroke:#0f52ff;stroke-width:2.52px;"/><path d="M101.568,116.442l19.448,19.449l38.897,-0l-19.448,-19.449l-38.897,0Z" style="fill:#fff;stroke:#0f52ff;stroke-width:2.52px;"/><path d="M121.016,155.339l-19.448,-19.448l-0,-19.449l19.448,19.449l0,19.448Z" style="fill:#fff;stroke:#0f52ff;stroke-width:2.52px;"/><path d="M140.465,194.236l-0,-19.448l19.448,-19.449l0,19.449l-19.448,19.448Z" style="fill:#fff;stroke:#0f52ff;stroke-width:2.52px;"/><path d="M101.568,174.788l-0,19.448l38.897,0l-0,-19.448l-38.897,-0Z" style="fill:#fff;stroke:#0f52ff;stroke-width:2.52px;"/><path d="M37.158,168.65l7.32,-7.32l-7.32,-7.319l7.32,-7.32l-7.32,-7.319l7.32,-7.32l-7.32,-7.32l7.32,-7.319l-10.302,-10.302" style="fill:none;stroke:#fff;stroke-opacity:0.3;stroke-width:4px;stroke-linecap:butt;stroke-linejoin:miter;"/><path d="M12.285,77.491l7.32,-7.32l-7.32,-7.319l7.32,-7.32l-7.32,-7.319l7.32,-7.32l-7.32,-7.32l7.32,-7.319l-10.302,-10.302" style="fill:none;stroke:#fff;stroke-opacity:0.3;stroke-width:4px;stroke-linecap:butt;stroke-linejoin:miter;"/><path d="M12.285,238.689l7.32,-7.32l-7.32,-7.319l7.32,-7.32l-7.32,-7.319l7.32,-7.32l-7.32,-7.32l7.32,-7.319l-10.302,-10.302" style="fill:none;stroke:#fff;stroke-opacity:0.3;stroke-width:4px;stroke-linecap:butt;stroke-linejoin:miter;"/><path d="M214.547,190.492l-7.319,-7.319l7.319,-7.32l-7.319,-7.32l7.319,-7.319l-7.319,-7.32l7.319,-7.319l-7.319,-7.32l7.319,-7.319l-10.301,-10.302" style="fill:none;stroke:#fff;stroke-opacity:0.3;stroke-width:4px;stroke-linecap:butt;stroke-linejoin:miter;"/><path d="M238.146,214.473l-7.32,-7.319l7.32,-7.32l-7.32,-7.319l7.32,-7.32l-7.32,-7.32l7.32,-7.319l-7.32,-7.32l7.32,-7.319l-10.302,-10.302" style="fill:none;stroke:#fff;stroke-opacity:0.3;stroke-width:4px;stroke-linecap:butt;stroke-linejoin:miter;"/><path d="M238.146,96.179l-7.32,-7.319l7.32,-7.32l-7.32,-7.319l7.32,-7.32l-7.32,-7.32l7.32,-7.319l-7.32,-7.32l7.32,-7.319l-10.302,-10.302" style="fill:none;stroke:#fff;stroke-opacity:0.3;stroke-width:4px;stroke-linecap:butt;stroke-linejoin:miter;"/><path d="M69.253,259.402l-7.32,-7.32l7.32,-7.32l-7.32,-7.319l7.32,-7.32l-7.32,-7.319l7.32,-7.32l-7.32,-7.319l7.32,-7.32l-7.32,-7.32l7.32,-7.319l-7.32,-7.32l7.32,-7.319l-7.32,-7.32l7.32,-7.32l-7.32,-7.319l7.32,-7.32l-10.302,-10.301" style="fill:none;stroke:#fff;stroke-opacity:0.3;stroke-width:4px;stroke-linecap:butt;stroke-linejoin:miter;"/><path d="M183.311,58.097l10.302,-10.302l-7.319,-7.32l7.319,-7.319l-7.319,-7.32l7.319,-7.319l-7.319,-7.32l7.319,-7.32l-3.877,-3.877" style="fill:none;stroke:#fff;stroke-opacity:0.3;stroke-width:4px;stroke-linecap:butt;stroke-linejoin:miter;"/><path d="M186.294,257.424l7.319,-7.32l-10.302,-10.301" style="fill:none;stroke:#fff;stroke-opacity:0.3;stroke-width:4px;stroke-linecap:butt;stroke-linejoin:miter;"/><path d="M69.253,45.35l-7.32,-7.32l7.32,-7.319l-7.32,-7.32l7.32,-7.319l-7.32,-7.32l7.32,-7.32l-7.32,-7.319" style="fill:none;stroke:#fff;stroke-opacity:0.3;stroke-width:4px;stroke-linecap:butt;stroke-linejoin:miter;"/><path d="M150.056,258.99l-7.319,-7.319l7.319,-7.32l-7.319,-7.319l7.319,-7.32l-10.301,-10.302" style="fill:none;stroke:#fff;stroke-opacity:0.3;stroke-width:4px;stroke-linecap:butt;stroke-linejoin:miter;"/><path d="M111.293,23.488l-7.32,-7.319l7.32,-7.32l-7.32,-7.32l7.32,-7.319" style="fill:none;stroke:#fff;stroke-opacity:0.3;stroke-width:4px;stroke-linecap:butt;stroke-linejoin:miter;"/></g></svg>
